<?xml version="1.0" standalone="no"?>
<!DOCTYPE svg PUBLIC "-//W3C//DTD SVG 20010904//EN"
 "http://www.w3.org/TR/2001/REC-SVG-20010904/DTD/svg10.dtd">
<svg version="1.0" xmlns="http://www.w3.org/2000/svg"
 width="505.000000pt" height="505.000000pt" viewBox="0 0 505.000000 505.000000"
 preserveAspectRatio="xMidYMid meet">
<metadata>
Created by potrace 1.14, written by Peter Selinger 2001-2017
</metadata>
<g transform="translate(0.000000,505.000000) scale(0.100000,-0.100000)"
fill="#000000" stroke="none">
<path d="M2463 4564 c4 -7 0 -14 -8 -18 -8 -3 -15 -1 -15 5 0 6 -5 7 -12 3
-16 -10 -58 -12 -52 -2 3 4 -2 8 -11 8 -10 0 -14 -5 -9 -12 5 -10 4 -10 -6 -1
-8 8 -20 9 -37 2 -13 -5 -22 -5 -19 0 7 10 -65 7 -83 -4 -8 -4 -17 -2 -22 6
-8 12 -11 12 -19 -1 -9 -13 -11 -13 -20 0 -9 13 -10 13 -10 0 0 -13 -1 -13
-10 0 -9 13 -11 13 -20 0 -8 -12 -11 -13 -19 -1 -6 9 -11 10 -15 2 -4 -6 -13
-11 -19 -11 -7 0 -6 4 3 11 12 9 11 9 -5 4 -11 -4 -31 -9 -43 -10 -13 -2 -26
-6 -29 -9 -4 -3 -12 -1 -19 5 -8 6 -14 6 -18 0 -4 -5 -18 -8 -32 -5 -14 3 -23
1 -20 -4 6 -11 -25 -9 -43 3 -10 5 -12 4 -7 -3 4 -7 2 -12 -3 -12 -6 0 -11 6
-11 13 0 8 -3 7 -9 -3 -6 -8 -8 -17 -5 -21 2 -4 -5 -5 -15 -2 -13 3 -18 11
-14 21 3 10 2 13 -4 7 -4 -6 -26 -16 -48 -23 l-40 -11 25 20 c14 11 18 17 10
13 -8 -4 -23 -14 -32 -22 -9 -7 -22 -11 -27 -7 -6 3 -11 2 -11 -4 0 -5 -9 -8
-20 -6 -11 2 -20 0 -20 -6 0 -5 -3 -8 -7 -7 -13 2 -67 -14 -88 -27 -11 -7 -28
-11 -38 -10 -10 2 -14 -1 -10 -8 4 -6 0 -8 -10 -4 -9 3 -19 2 -22 -2 -3 -5
-27 -8 -54 -8 -38 2 -47 -1 -43 -12 4 -10 1 -13 -12 -8 -9 4 -15 3 -12 -2 3
-5 -1 -12 -10 -15 -10 -4 -13 -2 -9 7 4 6 -1 3 -9 -7 -9 -11 -16 -17 -16 -13
0 4 -9 -2 -20 -13 -11 -11 -26 -17 -33 -14 -8 3 -17 -2 -21 -11 -5 -13 -10
-14 -27 -4 -17 9 -20 8 -14 -2 6 -9 3 -11 -8 -6 -12 4 -17 1 -17 -9 0 -11 -6
-14 -16 -10 -8 3 -13 2 -10 -3 3 -4 -17 -19 -44 -33 -30 -15 -50 -21 -50 -14
0 7 -3 7 -8 1 -10 -14 -56 -39 -48 -26 4 5 1 13 -5 17 -8 4 -9 3 -5 -4 4 -7 2
-12 -4 -12 -6 0 -9 -4 -6 -9 4 -5 -3 -7 -14 -4 -12 3 -20 0 -20 -6 0 -7 5 -9
12 -5 7 4 8 3 4 -5 -4 -6 -12 -8 -18 -5 -8 5 -9 1 -4 -11 5 -14 4 -16 -8 -6
-11 9 -15 8 -20 -4 -3 -8 -12 -15 -20 -15 -8 0 -20 -8 -25 -17 -6 -10 -11 -12
-11 -5 0 8 -6 6 -18 -5 -11 -10 -17 -22 -14 -27 3 -5 -2 -7 -11 -3 -11 4 -18
-1 -22 -14 -4 -10 -11 -17 -16 -14 -5 4 -12 -1 -15 -9 -3 -9 -10 -13 -15 -10
-5 3 -12 -2 -15 -10 -3 -9 -13 -16 -21 -16 -8 0 -12 -4 -8 -9 7 -12 -29 -33
-39 -23 -4 3 -4 -1 0 -11 3 -10 1 -18 -5 -18 -6 -1 -17 -2 -23 -3 -7 0 -13 -8
-13 -16 -1 -8 -7 -14 -15 -12 -8 2 -12 0 -8 -4 4 -4 -3 -17 -17 -29 -13 -13
-21 -26 -18 -29 4 -3 -4 -15 -17 -26 -13 -11 -20 -20 -16 -20 4 0 1 -7 -6 -15
-26 -29 -38 -44 -38 -49 0 -12 -35 -46 -47 -46 -7 0 -13 -5 -13 -11 0 -5 6 -7
12 -4 7 4 2 -2 -11 -13 -13 -10 -21 -24 -17 -30 3 -6 1 -12 -4 -14 -10 -3 -16
-21 -19 -51 -1 -5 -7 -5 -13 -1 -10 6 -10 4 -1 -7 17 -17 16 -32 0 -26 -10 4
-13 -3 -12 -24 1 -17 -2 -26 -8 -22 -6 4 -8 0 -4 -10 3 -10 3 -17 -2 -17 -4 0
-7 -13 -6 -30 1 -16 -2 -27 -6 -24 -5 2 -7 -11 -5 -30 1 -20 -1 -37 -5 -38 -3
-2 -10 -14 -14 -27 -6 -18 -4 -22 6 -15 11 6 12 5 3 -7 -6 -8 -10 -24 -9 -36
1 -13 -3 -23 -9 -24 -6 0 -2 -4 9 -9 19 -8 19 -9 1 -9 -14 -1 -16 -4 -7 -14 6
-8 8 -17 4 -20 -3 -4 0 -13 7 -22 10 -12 9 -16 -4 -21 -9 -3 -13 -11 -9 -17
11 -19 12 -77 1 -77 -6 0 -3 -10 8 -22 10 -12 13 -18 6 -14 -16 10 -11 -26 8
-51 13 -16 13 -17 0 -6 -13 10 -16 8 -16 -8 0 -12 5 -18 14 -14 7 2 10 0 7 -5
-3 -6 -3 -16 2 -22 11 -18 13 -39 3 -33 -5 3 -12 0 -16 -6 -4 -7 -3 -9 3 -6 6
4 17 -1 24 -10 10 -11 10 -14 2 -9 -9 5 -11 2 -7 -8 3 -9 10 -16 15 -16 5 0 9
-9 9 -19 0 -11 5 -21 10 -23 6 -2 12 -13 13 -25 0 -12 5 -19 9 -17 4 3 8 -9 8
-25 0 -17 5 -31 11 -31 8 0 8 -4 1 -13 -12 -14 10 -51 24 -39 4 4 2 -2 -6 -12
-10 -13 -10 -17 -2 -12 7 4 12 1 12 -8 0 -9 5 -16 11 -16 5 0 7 -4 4 -10 -3
-5 -1 -10 5 -10 7 0 9 -7 6 -16 -4 -10 1 -22 11 -31 10 -8 11 -11 3 -7 -12 7
-13 5 -3 -8 7 -8 9 -19 5 -23 -4 -5 -1 -5 6 -1 7 4 12 1 12 -9 0 -9 4 -14 9
-11 9 6 26 -22 22 -37 -1 -5 9 -17 21 -28 21 -17 21 -19 3 -13 l-20 6 20 -13
c28 -18 45 -36 45 -48 0 -6 5 -11 10 -11 6 0 10 -7 10 -15 0 -8 8 -15 17 -15
9 0 14 -3 10 -6 -3 -4 11 -23 33 -44 22 -21 36 -40 33 -44 -4 -3 -1 -6 6 -6 7
0 26 -13 41 -30 15 -16 33 -30 40 -30 7 0 10 -7 6 -16 -3 -8 -2 -12 4 -9 5 3
32 -17 60 -45 28 -27 53 -50 55 -50 3 0 10 0 16 0 5 0 8 -4 5 -9 -5 -8 35 -31
55 -31 6 0 17 -6 25 -14 11 -11 11 -16 1 -19 -7 -3 -4 -6 6 -6 22 -1 69 -46
59 -57 -4 -4 -1 -4 5 0 8 4 26 -7 45 -29 18 -19 38 -35 45 -35 6 0 15 -9 18
-20 3 -11 11 -20 16 -20 5 0 11 0 14 0 3 0 14 -9 24 -19 13 -13 27 -18 42 -14
14 4 20 2 16 -4 -5 -7 1 -9 15 -5 16 4 19 2 13 -9 -7 -11 -6 -12 6 -2 11 9 18
8 31 -1 10 -7 15 -16 11 -20 -4 -4 0 -4 10 0 9 3 25 0 34 -7 12 -10 15 -10 9
-1 -11 18 5 14 20 -5 10 -14 13 -15 14 -4 0 11 4 10 16 -5 8 -10 13 -13 9 -6
-3 6 -1 12 4 12 6 0 11 -4 11 -9 0 -5 8 -8 18 -7 9 2 20 -2 24 -7 4 -7 11 -7
21 2 12 9 16 9 19 -1 4 -10 8 -10 21 1 14 11 17 11 17 0 0 -9 3 -10 8 -3 4 6
17 10 30 9 12 -1 22 2 22 6 0 4 10 6 21 4 12 -2 29 0 39 5 11 6 21 5 28 -2 9
-9 12 -9 12 1 0 10 3 11 14 2 11 -9 16 -9 22 0 5 8 3 9 -6 4 -9 -5 -11 -4 -6
3 5 9 13 9 27 2 12 -7 19 -7 19 -1 0 5 12 8 27 5 15 -3 30 0 34 8 7 10 9 11 9
0 0 -10 5 -10 21 -1 17 9 20 8 13 -3 -6 -11 -5 -11 9 1 12 9 17 10 17 2 0 -7
5 -9 10 -6 6 4 8 12 4 18 -3 7 2 3 10 -7 12 -14 16 -16 16 -5 0 9 10 14 30 13
40 -1 52 -14 35 -37 -8 -12 -15 -14 -20 -8 -3 6 -1 11 6 11 7 0 10 3 6 6 -13
13 -27 -7 -17 -26 7 -13 6 -19 -6 -24 -8 -3 -13 -10 -9 -15 3 -5 1 -12 -4 -15
-5 -4 -12 -2 -16 4 -4 6 -11 8 -16 4 -6 -4 -6 -10 1 -19 8 -10 6 -13 -7 -11
-13 1 -18 -6 -17 -21 1 -13 -3 -23 -8 -23 -5 0 -7 -4 -4 -9 7 -11 -29 -53 -38
-43 -4 4 -6 0 -4 -8 2 -9 -3 -14 -11 -12 -12 3 -12 1 -1 -13 11 -14 11 -16 -1
-13 -8 2 -13 -4 -13 -15 2 -14 -1 -15 -12 -6 -10 8 -12 7 -9 -10 4 -23 -10
-29 -18 -8 -4 9 -6 9 -6 0 -1 -6 4 -15 9 -18 6 -3 10 -11 10 -16 0 -6 -4 -8
-8 -5 -4 2 -9 -4 -9 -15 -1 -12 3 -17 10 -13 9 5 9 4 0 -6 -6 -7 -9 -19 -6
-28 5 -11 3 -13 -7 -7 -9 5 -11 4 -6 -4 14 -21 18 -63 5 -56 -8 6 -8 2 0 -12
6 -11 7 -23 4 -27 -3 -3 0 -6 7 -6 11 0 11 -3 2 -12 -15 -15 -16 -32 -2 -23 6
4 10 -7 10 -25 0 -18 4 -29 10 -25 6 3 10 1 10 -4 0 -10 -14 -15 -33 -12 -5 1
-6 -3 -2 -8 3 -6 12 -8 20 -4 8 3 15 0 15 -7 0 -6 5 -8 12 -4 7 5 8 3 4 -5 -5
-7 -15 -10 -23 -7 -8 3 -11 1 -8 -5 4 -5 16 -7 27 -3 14 4 18 2 14 -5 -4 -6
-2 -11 4 -11 6 0 8 -5 4 -12 -6 -10 -5 -10 8 -1 18 15 29 7 21 -15 -4 -10 -2
-13 5 -8 7 4 12 1 12 -8 0 -9 5 -16 11 -16 5 0 7 -5 3 -12 -5 -7 -3 -8 6 -3 8
5 20 -1 32 -16 11 -13 17 -18 13 -11 -3 6 -1 12 4 12 6 0 11 -9 11 -21 0 -13
-4 -18 -12 -13 -7 4 -8 3 -4 -5 4 -6 12 -9 17 -6 16 10 33 -6 18 -17 -10 -7
-8 -8 8 -5 15 3 20 1 16 -9 -3 -8 -10 -11 -17 -7 -6 3 -7 2 -3 -3 5 -5 12 -9
15 -10 19 -2 61 -24 68 -35 5 -8 3 -9 -6 -4 -9 6 -11 4 -6 -4 5 -7 15 -10 23
-6 13 4 14 3 3 -10 -11 -13 -10 -14 5 -8 14 5 17 3 12 -10 -3 -9 -3 -16 1 -16
25 4 42 -3 42 -18 0 -9 3 -14 6 -10 4 3 13 -1 21 -9 8 -8 19 -12 24 -8 5 3 9
2 8 -3 -4 -24 4 -33 27 -33 14 0 23 -4 19 -10 -3 -6 1 -10 10 -10 8 0 18 -7
21 -15 4 -8 10 -15 16 -15 5 0 6 5 2 12 -4 6 3 4 16 -5 18 -12 28 -14 43 -5
15 7 22 7 28 -3 6 -10 9 -11 9 -2 0 15 21 13 32 -2 5 -6 8 -4 8 5 0 12 2 12 9
1 7 -10 13 -11 31 -1 12 7 20 8 17 3 -3 -4 1 -14 9 -21 9 -8 14 -9 14 -2 0 13
52 9 62 -5 5 -6 8 -5 8 3 0 6 5 12 11 12 5 0 8 -3 5 -8 -2 -4 15 -7 39 -7 24
0 41 2 39 4 -2 2 6 9 19 16 15 8 24 8 29 1 5 -7 8 -6 8 3 0 11 4 9 15 -5 9
-12 13 -13 10 -4 -4 11 1 16 14 16 12 0 17 -6 14 -16 -3 -10 -1 -10 7 3 12 19
35 24 24 5 -4 -7 3 -3 15 9 26 27 40 31 20 6 -8 -9 3 -4 24 11 21 16 40 26 44
22 4 -3 17 1 31 10 17 11 22 12 16 3 -6 -11 -5 -12 8 -2 8 7 18 10 21 6 4 -3
7 -1 7 5 0 6 6 9 14 6 8 -3 17 -1 21 5 4 8 12 8 25 1 16 -8 18 -7 14 4 -3 8 0
17 7 22 8 4 10 3 5 -4 -5 -8 0 -11 16 -8 13 2 22 8 21 13 -3 15 48 7 59 -9 7
-10 8 -9 4 4 -3 10 -1 20 4 23 9 6 14 -8 11 -28 -1 -5 3 -5 9 -2 6 4 9 13 6
21 -3 7 0 16 6 20 6 4 8 3 5 -3 -4 -6 0 -16 7 -22 12 -10 13 -9 9 7 -2 11 1
23 8 27 8 5 10 4 5 -3 -13 -22 5 -12 30 16 14 15 23 21 19 14 -3 -6 -1 -12 4
-12 6 0 11 5 11 11 0 5 5 7 10 4 6 -3 10 -1 10 5 0 7 7 10 15 6 8 -3 15 0 15
6 0 6 6 5 17 -3 11 -10 14 -10 9 -1 -4 6 -4 12 1 13 29 3 47 9 54 21 7 10 9
10 9 1 0 -7 5 -13 10 -13 6 0 10 7 10 16 0 8 4 13 9 9 5 -3 12 -1 16 5 3 5 17
10 30 10 13 0 25 5 27 11 2 6 16 12 32 12 15 -1 30 6 33 13 3 10 10 11 22 5
12 -7 23 -3 45 17 25 23 28 24 23 7 -7 -18 -6 -19 6 -3 8 10 17 15 20 11 4 -3
7 -1 7 6 0 8 7 11 15 7 9 -3 15 0 15 8 0 17 47 49 61 41 5 -4 9 -3 8 2 -3 19
2 34 10 29 5 -4 12 0 14 6 4 10 8 9 17 -2 8 -12 9 -9 4 14 -5 21 -4 27 5 22 6
-4 14 0 17 8 3 9 9 14 14 11 4 -2 12 7 18 20 7 14 15 25 19 24 18 -3 34 2 30
9 -5 9 30 42 37 34 3 -3 6 3 6 12 0 12 5 16 15 12 8 -3 14 -2 14 2 -3 19 2 33
9 28 11 -6 58 45 54 58 -2 5 4 6 12 3 9 -4 18 -1 22 5 5 7 2 8 -7 3 -12 -8
-12 -6 0 8 7 9 20 17 28 17 9 0 13 6 9 15 -3 9 0 15 9 15 8 0 15 5 15 10 0 6
7 10 15 10 8 0 15 7 15 15 0 8 7 15 16 15 8 0 13 4 9 9 -3 5 4 12 14 16 14 4
18 11 14 23 -6 15 -4 15 9 4 14 -11 16 -10 11 8 -4 16 -2 19 12 13 13 -4 16
-3 11 5 -4 7 -1 15 8 18 9 3 13 10 10 15 -3 5 1 12 10 15 9 3 12 12 9 21 -4
11 -2 14 5 9 8 -5 10 -2 6 8 -4 10 -1 16 7 16 11 0 11 3 -1 10 -13 9 -13 10 0
11 8 1 19 1 24 0 5 -1 4 5 -4 13 -10 14 -10 16 6 16 16 0 17 2 4 10 -9 6 -10
10 -3 10 11 0 29 37 25 52 -1 5 4 7 11 5 6 -1 11 4 9 12 -2 9 3 11 14 7 14 -5
15 -4 4 9 -9 11 -9 15 -1 15 7 0 9 4 6 10 -3 5 2 10 12 10 13 0 15 2 5 9 -10
6 -10 10 3 21 8 7 15 21 15 31 0 11 4 19 8 19 5 0 8 15 7 34 0 25 3 32 11 25
8 -6 10 2 7 32 -2 22 1 46 6 53 6 7 8 16 4 20 -11 11 -12 37 -1 30 6 -4 8 2 3
16 -5 16 -4 20 5 15 9 -6 9 -3 0 15 -10 18 -9 24 7 37 17 14 17 14 -2 8 -16
-5 -17 -4 -8 6 9 9 9 17 2 32 -7 12 -7 17 -1 13 5 -3 13 1 16 10 3 8 2 13 -2
10 -11 -6 -9 25 3 43 5 9 4 12 -2 8 -5 -3 -9 4 -8 16 2 12 8 21 14 19 15 -3
14 4 -5 22 -8 9 -11 16 -5 16 5 0 8 9 6 20 -2 11 1 20 6 20 6 0 7 5 4 10 -4 6
-12 8 -18 4 -7 -3 -4 1 5 9 14 11 15 16 5 27 -9 10 -9 11 2 5 10 -6 12 -2 6
14 -4 13 -1 29 7 38 7 9 8 14 2 10 -13 -8 -13 91 0 112 6 9 5 12 0 8 -6 -3
-16 -2 -24 4 -12 7 -12 9 4 9 14 0 16 3 8 13 -7 8 -7 18 -2 27 5 8 5 22 -1 32
-6 10 -7 23 -4 28 3 5 1 12 -5 15 -8 5 -8 11 0 20 8 9 8 15 0 20 -5 3 -10 17
-10 31 0 17 -4 23 -12 18 -8 -5 -9 -2 -5 10 4 10 -1 24 -11 34 -10 10 -18 28
-17 40 1 12 -1 20 -3 17 -3 -3 -10 5 -17 18 -8 15 -8 24 -1 29 7 5 5 8 -5 8
-9 0 -16 6 -17 13 -2 31 -10 49 -30 72 -12 14 -22 32 -22 40 0 8 -4 15 -10 15
-5 0 -10 7 -10 16 0 9 -5 12 -12 8 -6 -4 -8 -3 -4 4 3 6 1 14 -5 17 -5 4 -8
14 -5 22 4 9 2 11 -6 7 -8 -5 -9 -2 -5 10 4 10 3 15 -3 11 -6 -3 -10 0 -10 7
0 7 -12 23 -27 36 -16 13 -27 26 -25 28 6 10 1 35 -6 30 -4 -2 -14 4 -21 16
-7 11 -8 18 -3 14 5 -3 9 1 9 9 0 8 -4 12 -9 9 -4 -3 -8 0 -8 6 0 6 -4 8 -10
5 -5 -3 -10 3 -10 14 0 11 -5 23 -12 27 -7 5 -8 3 -3 -6 6 -9 4 -11 -4 -6 -7
5 -10 14 -7 21 2 7 -4 15 -15 18 -16 4 -18 9 -11 24 10 19 12 25 12 45 0 6 3
8 7 5 3 -4 12 1 20 11 8 9 12 12 9 5 -4 -6 -1 -15 5 -19 8 -4 9 -3 5 5 -4 6 0
14 8 17 9 3 13 10 10 15 -3 5 -1 9 5 9 5 0 12 -6 14 -12 4 -10 6 -10 6 0 1 7
5 10 11 7 5 -3 7 0 4 9 -6 15 11 17 33 3 9 -6 11 -3 7 7 -4 11 0 13 15 9 17
-4 20 -2 15 13 -6 18 -6 18 8 0 14 -18 15 -18 22 -1 5 14 9 15 21 5 12 -10 13
-8 10 9 -3 18 -1 20 16 11 15 -8 19 -8 17 2 -2 7 3 12 10 10 6 -1 12 3 12 9 0
5 4 8 9 4 5 -3 17 2 25 11 9 8 16 12 16 8 0 -3 7 -1 15 6 13 11 15 10 10 -6
-5 -13 -2 -12 7 4 8 12 18 19 23 15 4 -4 5 0 2 9 -4 11 -2 17 6 15 7 -1 11 4
9 12 -3 12 -1 12 14 0 10 -8 15 -9 11 -3 -4 7 0 14 7 17 10 4 13 16 11 36 -2
17 1 34 7 37 7 5 8 2 3 -6 -5 -9 -4 -11 4 -6 9 6 9 11 0 22 -9 11 -8 14 2 14
12 0 12 2 0 9 -9 6 -10 11 -2 15 14 9 14 26 0 26 -5 0 -7 -5 -3 -12 4 -7 3 -8
-5 -4 -9 6 -9 11 0 22 6 8 8 14 3 14 -4 0 -3 5 4 12 17 17 15 33 -3 18 -12
-10 -14 -8 -10 9 2 12 7 26 11 32 5 8 1 8 -14 0 -18 -9 -19 -8 -15 12 4 18 3
19 -6 7 -9 -13 -11 -12 -11 3 0 10 -4 15 -10 12 -5 -3 -10 -1 -10 5 0 17 -69
82 -80 75 -6 -4 -10 -1 -10 6 0 8 -4 8 -15 -1 -12 -10 -15 -10 -15 0 0 9 -3
10 -13 1 -10 -8 -17 -7 -26 2 -10 9 -12 9 -9 -2 2 -7 -3 -16 -11 -19 -9 -3
-11 0 -6 9 5 8 -4 3 -20 -11 -16 -14 -25 -18 -21 -10 5 9 2 8 -7 -2 -8 -10
-17 -15 -20 -11 -4 3 -7 1 -7 -6 0 -7 -4 -9 -10 -6 -5 3 -10 1 -10 -6 0 -7 -3
-10 -6 -6 -4 3 -13 -1 -22 -9 -12 -13 -16 -13 -23 -2 -7 10 -9 9 -9 -4 0 -11
-6 -16 -20 -13 -11 2 -20 -1 -20 -7 0 -5 -7 -8 -15 -4 -10 3 -15 -1 -15 -12 0
-15 -2 -15 -10 -2 -8 12 -10 12 -10 -5 0 -17 -2 -17 -10 -5 -8 13 -10 13 -10
-2 0 -11 -6 -16 -19 -13 -14 2 -18 -1 -15 -10 4 -10 0 -13 -15 -10 -12 2 -21
-1 -21 -6 0 -5 -8 -9 -17 -7 -10 2 -17 -2 -16 -8 1 -6 -4 -11 -12 -11 -8 0
-11 5 -8 11 4 6 0 5 -9 -1 -8 -7 -19 -9 -23 -5 -5 4 -5 2 -2 -4 7 -13 -19 -28
-33 -19 -4 3 -13 -2 -20 -10 -7 -8 -16 -12 -21 -9 -5 3 -6 -2 -3 -11 4 -11 2
-14 -9 -9 -8 3 -18 0 -22 -6 -6 -9 -10 -9 -16 1 -7 11 -9 10 -9 -3 0 -10 -5
-18 -11 -18 -5 0 -7 5 -3 12 5 7 3 8 -7 2 -18 -11 -60 -14 -54 -3 8 11 -6 40
-16 33 -5 -3 -9 3 -9 13 0 15 -2 16 -11 3 -9 -12 -10 -11 -6 7 3 15 1 20 -9
16 -17 -6 -18 8 -1 27 10 12 9 12 -3 3 -23 -17 -60 1 -55 27 2 11 0 18 -6 15
-5 -4 -9 -1 -9 4 0 6 -6 11 -13 11 -8 0 -19 11 -25 25 -6 14 -19 25 -28 25
-13 0 -14 3 -4 15 10 12 8 14 -8 10 -17 -3 -20 1 -16 23 3 19 2 23 -5 13 -7
-11 -14 -9 -35 12 -14 14 -26 29 -26 32 0 11 -63 70 -72 68 -4 -2 -8 2 -8 7 0
6 -7 10 -16 10 -8 0 -13 4 -10 9 5 8 -29 25 -46 22 -5 -1 -8 6 -8 15 0 11 -5
14 -17 10 -10 -4 -14 -4 -10 0 12 12 -13 32 -34 27 -13 -4 -19 -1 -17 8 2 8
-3 13 -9 12 -7 -2 -13 2 -13 7 0 6 -9 10 -19 10 -11 0 -21 4 -23 9 -1 5 -10
11 -18 13 -8 2 -17 6 -20 9 -3 4 -16 9 -30 10 -14 2 -28 8 -31 12 -3 4 -16 9
-27 10 -12 1 -22 5 -22 9 0 4 -7 5 -15 2 -8 -4 -15 -1 -15 6 0 6 -4 9 -9 6 -5
-4 -12 0 -14 6 -4 10 -6 10 -6 1 -1 -9 -11 -8 -37 3 -20 8 -38 13 -41 10 -3
-3 -23 4 -45 15 -25 13 -37 15 -32 7 6 -10 4 -10 -9 1 -9 7 -23 11 -32 7 -8
-3 -14 0 -12 6 1 7 -2 12 -8 13 -5 0 -16 4 -24 9 -10 7 -12 6 -6 -3 6 -10 2
-10 -16 0 -23 13 -28 14 -57 17 -7 1 -10 8 -7 15 4 6 -1 3 -9 -7 -12 -15 -16
-16 -16 -5 0 15 -36 19 -58 5 -7 -4 -12 -2 -12 5 0 8 -4 8 -15 -1 -12 -10 -15
-10 -15 0 0 10 -3 10 -15 0 -12 -10 -15 -10 -15 0 0 8 -3 10 -7 7 -3 -4 -13
-1 -21 6 -10 8 -13 8 -9 1 4 -7 0 -14 -8 -18 -8 -3 -15 -1 -15 5 0 6 -6 7 -12
3 -19 -12 -48 -12 -41 -1 4 6 0 8 -9 4 -9 -3 -21 0 -28 6 -9 9 -11 9 -7 1z
m-499 -767 c-5 -8 -3 -8 7 1 20 18 33 15 18 -5 -12 -16 -12 -17 2 -6 9 7 20 9
24 5 5 -4 5 -2 2 4 -9 15 20 27 29 13 3 -6 12 -8 19 -5 7 2 18 -1 25 -7 9 -8
11 -9 7 -1 -8 14 25 13 35 -1 5 -6 8 -4 8 5 0 13 1 13 10 0 9 -13 10 -13 11 0
0 10 3 8 9 -5 7 -17 9 -18 9 -2 1 17 3 17 34 1 23 -13 29 -13 20 -3 -9 11 -7
14 12 14 16 0 21 -4 17 -15 -5 -13 -3 -13 11 -1 14 11 17 11 17 0 0 -10 3 -10
11 -2 9 9 18 7 38 -5 25 -16 25 -16 12 1 -13 16 -12 17 10 9 13 -5 43 -8 66
-8 22 1 39 -2 37 -6 -2 -4 0 -9 6 -13 5 -3 10 -1 10 5 0 7 7 5 16 -5 13 -13
19 -13 32 -3 13 11 14 11 7 -1 -6 -11 -4 -13 8 -8 10 4 17 2 17 -5 0 -7 5 -6
15 2 12 10 15 10 15 0 0 -8 10 -11 29 -8 18 3 28 0 24 -5 -4 -6 3 -8 15 -5 12
4 25 2 28 -4 3 -5 15 -8 25 -5 13 4 19 0 20 -11 0 -11 2 -12 6 -4 6 15 33 16
33 1 0 -8 6 -7 17 2 9 8 14 9 10 3 -4 -7 0 -15 9 -18 8 -3 12 -2 9 4 -3 6 -1
10 4 10 6 0 11 -7 11 -15 0 -15 9 -19 48 -17 12 1 21 -2 18 -6 -2 -4 7 -12 20
-19 13 -6 21 -7 18 -1 -4 5 3 5 15 -1 12 -6 30 -16 42 -22 17 -8 19 -8 13 2
-4 7 9 3 30 -9 20 -12 34 -16 30 -10 -4 7 2 5 14 -5 12 -11 26 -16 33 -11 7 4
10 3 7 -2 -3 -5 0 -14 7 -21 11 -10 15 -10 18 0 3 7 6 4 6 -6 1 -10 5 -16 10
-13 5 4 11 2 13 -3 1 -5 10 -11 18 -13 8 -2 20 -8 27 -15 7 -6 24 -10 38 -9
13 2 22 -1 19 -5 -3 -5 2 -9 10 -9 9 0 16 -5 16 -11 0 -5 5 -7 11 -4 6 4 17
-1 25 -11 9 -11 12 -13 9 -6 -6 11 -3 11 14 1 19 -13 19 -14 3 -32 -13 -15
-14 -18 -2 -15 20 4 14 -29 -12 -62 -19 -23 -20 -23 -14 -3 6 19 3 18 -26 -9
-18 -17 -31 -38 -30 -46 3 -14 2 -14 -14 -1 -16 13 -16 12 -4 -11 12 -23 12
-24 -4 -11 -14 12 -16 12 -9 -4 5 -14 3 -17 -10 -12 -11 4 -14 2 -11 -7 3 -8
-4 -16 -16 -19 -15 -4 -19 -10 -14 -19 4 -7 -3 -4 -16 7 l-23 20 17 -26 c16
-26 16 -27 -1 -25 -10 0 -17 -5 -16 -11 2 -7 -2 -13 -8 -13 -5 0 -7 -4 -4 -10
3 -6 -1 -7 -10 -4 -11 5 -18 0 -22 -15 -3 -11 -9 -19 -13 -16 -4 3 -11 -2 -14
-11 -3 -9 -13 -14 -20 -11 -10 4 -13 0 -11 -14 3 -17 -5 -23 -27 -20 -4 0 -5
-8 -3 -19 2 -13 -1 -17 -11 -13 -7 3 -11 10 -7 16 3 6 1 7 -5 3 -6 -4 -9 -13
-5 -21 3 -10 -1 -15 -13 -15 -16 0 -17 -2 -4 -10 13 -8 12 -10 -2 -10 -10 0
-18 -6 -18 -14 0 -7 -8 -20 -17 -27 -9 -8 -14 -9 -10 -3 3 6 0 11 -7 11 -8 0
-12 -7 -8 -15 3 -10 1 -13 -6 -8 -8 5 -10 2 -6 -8 4 -12 0 -16 -17 -16 -12 0
-20 -3 -16 -6 3 -4 -11 -22 -31 -42 -20 -19 -31 -32 -23 -27 9 5 12 4 8 -2 -4
-6 -17 -9 -31 -8 -18 2 -23 -1 -19 -15 3 -12 -2 -20 -16 -25 -12 -4 -18 -12
-14 -21 3 -8 -1 -14 -11 -14 -9 0 -16 -4 -16 -10 0 -5 -7 -10 -16 -10 -8 0
-12 -4 -9 -10 6 -9 -7 -14 -27 -11 -4 0 -5 -6 -2 -13 3 -8 -3 -19 -15 -26 -11
-6 -20 -16 -18 -22 1 -6 -5 -13 -13 -15 -13 -4 -13 -3 0 6 11 8 12 11 2 11 -8
0 -16 -9 -19 -20 -3 -11 -10 -20 -15 -20 -5 0 -6 6 -2 13 4 7 3 9 -2 4 -5 -5
-10 -13 -10 -18 -1 -5 -2 -14 -3 -20 0 -5 -5 -8 -10 -5 -5 3 -11 -3 -14 -14
-3 -11 -10 -20 -17 -20 -6 0 -8 5 -4 12 4 7 3 8 -4 4 -6 -4 -8 -14 -5 -23 4
-11 3 -14 -5 -9 -7 4 -12 2 -12 -4 0 -6 -5 -8 -12 -4 -9 5 -8 2 1 -9 12 -16
12 -17 -5 -11 -10 4 -16 4 -12 -1 10 -10 -19 -38 -32 -30 -6 3 -7 -1 -4 -9 4
-11 0 -16 -11 -16 -9 0 -14 -3 -12 -7 6 -9 -19 -34 -26 -27 -2 2 -10 -3 -18
-13 -12 -15 -12 -16 1 -8 12 6 12 5 3 -5 -15 -17 -83 -24 -83 -9 0 8 -5 7 -16
-2 -9 -7 -18 -9 -22 -3 -11 15 -54 17 -64 2 -8 -10 -9 -9 -5 4 6 18 -29 33
-39 17 -3 -6 -11 -5 -20 2 -11 9 -14 9 -14 -1 0 -10 -3 -10 -15 0 -8 7 -15 9
-15 5 0 -4 -12 0 -26 10 -15 9 -23 12 -20 6 5 -7 -2 -10 -18 -9 -15 1 -26 5
-26 9 0 4 -8 6 -17 4 -10 -1 -28 2 -40 6 -16 6 -23 5 -23 -3 0 -9 -3 -9 -12 0
-8 8 -15 9 -25 0 -11 -8 -12 -7 -7 6 4 11 2 15 -7 11 -31 -10 -69 -13 -64 -4
4 5 11 6 17 3 7 -4 8 -2 4 5 -5 7 -13 8 -24 2 -12 -7 -22 -5 -35 7 -17 15 -17
15 -11 -4 7 -17 6 -17 -9 -6 -9 8 -21 11 -27 7 -5 -3 -10 -2 -10 2 0 5 -9 9
-20 9 -11 0 -20 -5 -20 -11 0 -5 -4 -5 -8 2 -4 7 -23 13 -41 15 -18 1 -35 6
-38 11 -2 4 -11 3 -19 -4 -8 -6 -14 -7 -14 -2 0 6 -10 10 -22 9 -13 -1 -26 2
-29 7 -3 4 -18 9 -33 11 -14 1 -33 11 -42 22 -8 10 -13 13 -9 7 3 -7 1 -13 -4
-13 -6 0 -11 5 -11 11 0 6 -7 9 -15 5 -8 -3 -15 -1 -15 4 0 6 -9 10 -20 10
-11 0 -20 5 -20 10 0 6 -5 10 -11 10 -5 0 -7 -6 -4 -12 4 -7 1 -6 -7 3 -7 9
-19 14 -25 12 -7 -3 -16 2 -19 11 -3 8 -12 12 -20 9 -8 -3 -14 -1 -14 5 0 5
-8 9 -17 8 -10 0 -17 4 -16 11 2 7 -6 10 -16 8 -11 -2 -22 3 -25 12 -4 8 -13
13 -21 9 -9 -3 -15 0 -15 10 0 8 -4 13 -9 10 -5 -3 -11 1 -15 9 -3 8 -12 15
-21 15 -8 0 -15 5 -15 10 0 6 -7 10 -15 10 -8 0 -15 5 -15 10 0 6 -5 10 -10
10 -11 0 -24 10 -61 43 -10 9 -22 18 -26 20 -5 1 -8 7 -8 14 0 6 -4 15 -9 20
-5 4 -6 3 -2 -4 4 -7 3 -13 -2 -13 -5 0 -15 11 -22 25 -7 13 -16 22 -20 20
-11 -7 -22 22 -30 78 -4 31 -3 47 4 48 6 0 5 3 -2 6 -10 4 -9 11 4 31 14 22
15 25 2 14 -13 -10 -17 -10 -21 0 -6 19 3 39 15 32 6 -4 2 6 -8 22 -19 27 -19
28 0 21 16 -6 17 -5 6 8 -7 8 -9 15 -6 15 4 0 2 10 -5 21 -9 17 -8 20 1 14 10
-6 12 -1 8 19 -3 14 -2 26 2 26 5 0 6 9 3 20 -3 13 0 20 8 20 11 0 11 2 -1 10
-12 7 -12 12 -2 22 6 6 12 22 12 34 0 12 15 37 33 55 17 18 25 29 17 25 -8 -5
2 7 23 26 20 20 37 41 37 47 0 6 5 11 11 11 5 0 7 6 3 13 -4 6 -4 9 1 5 11
-11 45 10 45 28 0 8 3 13 8 11 8 -6 33 19 26 26 -3 2 10 7 27 11 18 3 29 9 26
12 -3 4 4 15 16 24 17 14 25 16 36 7 8 -7 12 -7 9 -2 -4 6 2 17 14 24 16 10
19 10 13 -1 -4 -8 -1 -7 7 2 7 8 20 15 28 15 8 0 14 6 12 14 -3 12 0 12 12 1
12 -9 16 -9 16 -1 0 7 4 10 9 7 5 -4 12 0 14 6 4 10 8 9 16 -2 6 -9 11 -10 11
-3 0 18 62 36 72 21 6 -10 8 -10 8 0 0 6 7 12 15 12 8 0 15 5 15 11 0 6 7 9
15 5 8 -3 15 -2 15 3 0 5 11 7 25 6 14 -2 23 1 19 6 -3 5 7 9 23 10 43 2 88 6
91 9 1 1 7 4 12 5 6 1 13 4 18 5 4 1 31 2 59 2 29 0 50 5 47 9 -3 5 -1 9 5 9
5 0 13 -5 17 -11 4 -7 10 -7 16 -1 6 6 17 8 26 5 11 -5 13 -3 7 8 -5 8 2 5 14
-5 15 -14 20 -15 16 -5 -4 11 3 14 32 14 21 0 44 -4 51 -8 8 -5 12 -2 12 8 0
9 5 13 10 10 6 -4 7 -12 4 -18z m906 -103 c0 -8 -19 -13 -24 -6 -3 5 1 9 9 9
8 0 15 -2 15 -3z m1426 -179 c1 -9 -4 -11 -14 -7 -10 4 -12 7 -4 10 7 2 9 9 5
15 -3 7 -2 8 2 4 5 -4 10 -14 11 -22z m-892 -87 c-3 -4 -11 -5 -19 -1 -21 7
-19 12 4 10 11 0 18 -5 15 -9z m-104 -108 c0 -5 -5 -10 -11 -10 -5 0 -7 5 -4
10 3 6 8 10 11 10 2 0 4 -4 4 -10z m507 -165 c-1 -13 -11 -30 -21 -38 -15 -11
-16 -16 -6 -22 8 -5 11 -4 7 2 -10 16 18 23 34 10 11 -10 11 -9 0 6 -8 10 -9
17 -3 17 6 0 16 -8 21 -17 6 -10 11 -13 11 -7 0 6 -7 17 -15 24 -8 7 -15 18
-14 24 0 6 3 6 6 -2 4 -10 8 -10 19 -1 12 10 13 9 8 -5 -5 -12 0 -19 15 -23
11 -3 18 -9 15 -14 -3 -5 3 -9 13 -9 14 0 15 -2 4 -9 -11 -7 -10 -10 6 -15 10
-3 25 -22 32 -41 7 -20 17 -33 22 -30 5 4 9 -1 9 -10 0 -10 5 -13 12 -9 8 5 9
2 5 -9 -4 -12 -1 -17 9 -17 11 0 14 -6 10 -16 -4 -10 -2 -13 6 -8 7 5 9 0 6
-14 -4 -12 -3 -22 1 -22 4 0 8 -10 9 -22 4 -42 8 -56 19 -69 6 -8 9 -22 8 -31
-2 -10 1 -18 6 -18 5 0 9 -11 9 -25 0 -14 6 -25 13 -25 7 0 8 -3 2 -8 -14 -10
-17 -32 -4 -32 8 0 8 -5 -1 -15 -9 -10 -9 -15 -1 -15 6 0 11 -7 11 -15 0 -8
-6 -15 -12 -15 -9 0 -9 -3 1 -9 8 -5 11 -16 8 -26 -4 -9 -3 -14 3 -10 6 4 8
-6 6 -24 -2 -17 1 -31 7 -31 5 0 4 -7 -3 -15 -10 -12 -10 -15 1 -15 11 0 11
-2 -1 -10 -13 -8 -12 -10 4 -10 20 0 20 0 0 -15 -10 -8 -13 -15 -7 -15 9 0 10
-7 3 -26 -7 -16 -7 -23 0 -19 6 4 10 -5 10 -20 0 -14 -4 -24 -8 -21 -5 3 -9
-1 -9 -9 0 -8 4 -12 8 -10 3 3 9 -4 12 -15 3 -13 1 -18 -6 -13 -6 4 -8 0 -4
-10 4 -10 1 -17 -6 -18 -7 0 -3 -4 8 -9 11 -5 14 -9 6 -9 -10 -1 -11 -4 -2
-14 6 -8 8 -17 4 -21 -4 -3 -8 -14 -9 -24 -4 -40 -16 -87 -22 -92 -4 -3 -8
-13 -9 -22 0 -10 -1 -27 -2 -39 0 -11 -5 -18 -9 -15 -5 3 -9 -1 -9 -9 0 -8 5
-15 11 -15 6 0 5 -4 -2 -9 -8 -4 -13 -11 -13 -15 3 -20 0 -26 -11 -20 -6 4 -8
3 -4 -4 3 -6 -1 -18 -10 -26 -8 -9 -12 -16 -8 -16 4 0 -3 -8 -14 -19 -12 -10
-19 -21 -16 -24 3 -3 -3 -10 -14 -16 -11 -6 -22 -18 -26 -26 -4 -11 -2 -14 7
-9 6 4 -4 -8 -24 -27 -19 -19 -26 -27 -15 -19 21 15 21 15 2 -7 -11 -13 -25
-23 -31 -23 -7 0 -19 -8 -26 -17 -13 -16 -12 -17 4 -4 26 20 21 5 -9 -24 -14
-14 -30 -22 -37 -18 -7 4 -5 -2 3 -12 8 -10 10 -16 4 -12 -15 9 -67 -40 -58
-55 5 -8 2 -9 -9 -5 -11 4 -20 -1 -27 -14 -6 -11 -16 -16 -22 -13 -6 4 -8 3
-5 -3 4 -6 0 -16 -8 -23 -13 -11 -14 -10 -10 3 4 8 2 18 -4 22 -6 3 -9 0 -6
-8 6 -15 -39 -70 -49 -60 -3 4 -6 -1 -6 -10 0 -11 -5 -14 -16 -10 -10 4 -17
-1 -21 -15 -4 -17 -9 -19 -23 -12 -9 5 -20 6 -24 3 -3 -3 -6 0 -6 7 0 10 -4 9
-12 -3 -7 -10 -24 -19 -37 -22 -13 -2 -26 -7 -30 -10 -3 -4 8 -4 24 -1 l30 5
-25 -19 -25 -19 25 5 c21 4 22 3 5 -5 -11 -4 -23 -7 -27 -4 -5 2 -8 -2 -8 -9
0 -9 -3 -9 -10 2 -8 13 -10 12 -10 -4 0 -16 -2 -17 -17 -5 -11 10 -14 10 -9 2
9 -17 -6 -17 -23 0 -11 10 -12 9 -6 -2 6 -11 4 -13 -8 -8 -10 3 -17 3 -17 -1
0 -4 -8 -8 -17 -9 -10 0 -28 -3 -40 -6 -13 -3 -23 -1 -23 4 0 6 -6 7 -12 2
-22 -13 -48 -13 -48 0 0 7 -3 8 -8 2 -4 -5 -13 -11 -21 -13 -12 -3 -12 0 -2
12 10 12 9 14 -11 9 -13 -4 -26 -11 -30 -17 -5 -7 -8 -3 -8 9 0 17 -2 17 -10
5 -8 -12 -10 -12 -11 5 l0 20 -9 -20 c-5 -11 -9 -15 -9 -10 -1 6 -21 10 -48 9
-28 -1 -51 3 -55 9 -6 9 -8 8 -8 -2 0 -11 -3 -11 -17 0 -10 8 -14 9 -10 2 4
-6 2 -15 -4 -19 -8 -4 -9 -3 -5 4 4 7 2 12 -4 12 -6 0 -8 6 -5 13 4 6 -1 3 -9
-7 -9 -11 -16 -15 -16 -8 0 7 -12 10 -30 8 -17 -2 -30 1 -31 8 0 7 -2 6 -6 -1
-3 -9 -10 -10 -24 -3 -14 8 -19 7 -20 -2 0 -11 -2 -11 -6 0 -4 9 -8 10 -18 2
-10 -8 -15 -8 -21 1 -5 8 -3 9 6 4 9 -5 11 -4 6 4 -4 6 -13 8 -19 4 -15 -9
-47 -11 -47 -3 0 4 -14 6 -30 5 -17 -1 -33 1 -35 5 -8 12 16 70 26 64 5 -3 9
0 9 5 0 6 -5 11 -11 11 -5 0 -7 5 -4 10 4 6 10 8 15 5 5 -3 12 0 16 6 4 8 3 9
-4 5 -7 -4 -12 -1 -12 9 0 10 5 14 13 9 9 -6 9 -4 0 7 -18 18 -16 29 5 30 12
0 11 3 -7 10 -18 7 -21 12 -12 23 7 8 10 19 9 24 -2 6 6 18 17 26 16 13 17 15
2 10 -13 -5 -16 -2 -10 12 4 12 3 15 -5 10 -9 -5 -9 0 -2 19 6 15 8 31 4 36
-3 5 -1 9 5 9 6 0 7 7 4 17 -5 12 -3 14 8 8 11 -6 12 -5 2 5 -8 9 -9 19 -2 32
5 10 7 22 5 27 -3 5 1 12 10 15 8 3 13 10 10 14 -7 12 33 44 45 37 5 -4 8 -3
7 2 -2 4 1 9 5 10 4 1 15 9 23 18 9 8 21 12 27 8 7 -4 8 0 3 13 -4 10 -4 15 0
11 4 -4 14 -1 22 6 13 9 14 9 8 0 -13 -23 12 -14 28 9 11 15 16 18 16 8 1 -11
6 -9 19 7 10 12 21 19 25 16 3 -4 6 -1 6 5 0 7 5 12 11 12 6 0 25 10 42 22 18
13 28 16 23 7 -4 -7 -1 -6 7 3 8 10 17 15 20 11 4 -3 7 0 7 7 0 7 3 10 7 7 3
-4 12 1 20 11 9 10 12 11 7 2 -5 -10 0 -9 14 4 12 11 22 16 22 13 0 -4 9 2 20
13 11 11 27 20 36 20 8 0 13 4 10 8 -2 4 5 9 16 9 12 1 24 6 27 11 8 11 41 26
61 26 8 1 20 12 26 24 8 17 13 20 17 10 4 -9 6 -7 6 5 1 9 6 17 12 17 5 0 7
-6 3 -12 -5 -7 7 -1 25 15 18 15 36 25 41 22 4 -3 11 3 14 12 6 15 8 15 16 3
8 -13 10 -12 10 2 0 12 6 16 20 13 11 -2 18 0 15 6 -4 5 1 9 9 9 9 0 16 3 16
8 0 4 9 13 21 20 17 11 20 11 14 0 -3 -7 1 -4 10 7 9 11 23 19 32 17 8 -2 12
1 9 6 -3 6 1 13 10 16 10 4 13 2 8 -6 -5 -7 -3 -8 5 -4 7 5 10 15 6 23 -5 13
-3 14 10 3 13 -11 16 -11 13 0 -2 7 3 15 10 17 8 3 10 -1 5 -13 -6 -16 -5 -17
9 -4 8 8 14 22 11 30 -3 12 -1 11 8 -2 12 -15 14 -14 32 8 10 13 22 22 27 19
10 -6 7 21 -3 31 -4 4 -2 12 3 19 6 8 5 18 -4 30 -12 17 -13 16 -12 -11 1 -16
5 -34 9 -40 4 -7 1 -17 -6 -23 -11 -8 -13 -1 -13 38 1 26 7 56 15 64 11 14 11
18 -2 23 -9 3 -13 12 -11 19 3 7 1 15 -4 19 -5 3 -8 -4 -7 -15 1 -11 8 -25 16
-30 9 -5 9 -9 2 -9 -6 0 -19 7 -27 16 -19 18 -21 28 -4 18 7 -5 8 -3 4 5 -5 7
-15 10 -23 7 -11 -5 -13 -2 -9 9 3 9 2 13 -4 10 -6 -3 -10 -1 -10 5 0 6 -4 8
-10 5 -5 -3 -10 -1 -10 5 0 6 -4 9 -9 6 -5 -4 -7 3 -4 14 3 12 0 20 -6 20 -7
0 -9 -6 -5 -12 5 -10 3 -10 -7 0 -12 11 -12 14 1 23 11 8 7 9 -17 6 -31 -3
-37 2 -34 28 1 6 -6 1 -14 -10 -13 -17 -18 -18 -36 -7 -18 12 -19 11 -10 -7 8
-14 8 -22 -1 -27 -6 -4 -8 -3 -5 3 4 6 1 16 -7 22 -11 9 -12 6 -8 -14 4 -24 3
-25 -21 -16 -18 7 -28 7 -33 -1 -4 -6 -3 -8 2 -5 6 3 16 2 24 -4 11 -6 12 -9
2 -9 -7 0 -11 -4 -7 -9 3 -5 0 -13 -6 -17 -7 -4 -9 -3 -5 4 3 6 2 13 -3 16 -5
3 -11 -1 -15 -9 -3 -8 -10 -15 -16 -15 -6 0 -8 5 -4 12 4 6 3 8 -4 4 -6 -3 -9
-16 -7 -27 4 -20 4 -20 -23 -3 -25 16 -26 16 -13 0 12 -14 12 -19 1 -29 -9 -9
-11 -9 -6 0 3 6 1 15 -5 19 -7 4 -9 3 -6 -3 3 -5 -1 -19 -9 -31 -12 -18 -19
-20 -35 -12 -14 8 -19 7 -19 -3 0 -21 -46 -16 -47 5 -1 10 3 18 8 18 6 0 8 -4
4 -9 -3 -5 0 -13 6 -17 8 -4 9 -3 5 4 -4 7 -2 12 5 12 7 0 4 6 -6 14 -11 8
-24 12 -30 8 -5 -3 -4 1 2 10 7 8 9 19 5 23 -4 5 -1 5 6 1 7 -4 10 -11 8 -15
-3 -4 1 -8 8 -8 11 0 12 4 3 20 -10 16 -8 21 11 34 12 9 22 22 22 30 0 8 5 11
10 8 6 -3 10 0 10 8 0 17 46 58 55 49 4 -4 6 -2 5 3 -5 21 0 36 10 30 6 -3 10
1 10 10 0 9 5 13 10 10 6 -3 10 0 10 7 0 21 50 69 63 61 7 -4 6 1 -2 11 -8 9
-10 16 -5 15 20 -3 34 2 31 12 -1 6 4 14 12 17 8 3 11 0 7 -7 -4 -6 -2 -11 3
-11 6 0 11 7 11 15 0 8 -5 15 -10 15 -6 0 -5 6 2 14 8 9 19 11 29 5 11 -5 16
-4 16 6 0 8 -4 12 -9 9 -15 -10 -8 14 9 27 11 10 14 10 9 2 -4 -7 -2 -13 3
-13 10 0 15 20 13 42 -1 3 6 12 16 20 15 12 16 11 4 -4 -12 -15 -11 -17 6 -15
13 1 18 8 16 24 -2 20 0 22 19 12 18 -9 20 -9 10 2 -17 18 -16 29 3 29 9 0 12
5 8 13 -4 6 3 3 17 -8 18 -15 20 -16 10 -2 -7 9 -10 17 -5 17 5 0 2 5 -6 11
-13 9 -12 10 3 5 9 -3 17 -1 17 4 0 6 5 10 12 10 9 0 9 -3 0 -12 -16 -16 -15
-25 2 -31 8 -3 20 2 28 11 12 15 11 16 -4 3 -21 -15 -24 -7 -6 13 11 11 15 11
26 -3 10 -13 12 -14 11 -1 -2 22 0 40 5 40 3 0 4 -11 3 -25z m878 -454 c3 -5
2 -12 -3 -15 -5 -3 -9 1 -9 9 0 17 3 19 12 6z m-1135 -1260 c0 -4 -9 -12 -19
-18 -16 -10 -19 -9 -16 5 4 21 2 19 20 19 8 0 15 -3 15 -6z m-1425 -589 c-3
-3 -11 0 -18 7 -9 10 -8 11 6 5 10 -3 15 -9 12 -12z"/>
<path d="M1895 3790 c-3 -5 -1 -10 4 -10 6 0 11 5 11 10 0 6 -2 10 -4 10 -3 0
-8 -4 -11 -10z"/>
<path d="M1361 3701 c-8 -5 -9 -11 -3 -15 5 -3 12 1 16 9 6 17 6 18 -13 6z"/>
<path d="M3238 3493 c7 -3 16 -2 19 1 4 3 -2 6 -13 5 -11 0 -14 -3 -6 -6z"/>
<path d="M3673 3035 c0 -8 4 -12 9 -9 5 3 6 10 3 15 -9 13 -12 11 -12 -6z"/>
<path d="M3465 2861 c-3 -5 0 -13 6 -17 7 -4 9 -3 5 4 -3 5 0 13 6 15 9 4 10
6 1 6 -6 1 -14 -3 -18 -8z"/>
<path d="M3346 2732 c-3 -5 1 -9 9 -9 8 0 12 4 9 9 -3 4 -7 8 -9 8 -2 0 -6 -4
-9 -8z"/>
<path d="M3775 2610 c3 -5 8 -10 11 -10 2 0 4 5 4 10 0 6 -5 10 -11 10 -5 0
-7 -4 -4 -10z"/>
<path d="M3330 2579 c0 -5 5 -7 10 -4 6 3 10 8 10 11 0 2 -4 4 -10 4 -5 0 -10
-5 -10 -11z"/>
<path d="M3230 1365 c-11 -13 -10 -14 4 -9 9 3 16 10 16 15 0 13 -6 11 -20 -6z"/>
<path d="M3286 1371 c-4 -5 -2 -12 3 -15 5 -4 12 -2 15 3 4 5 2 12 -3 15 -5 4
-12 2 -15 -3z"/>
<path d="M476 2452 c-3 -5 1 -9 9 -9 8 0 12 4 9 9 -3 4 -7 8 -9 8 -2 0 -6 -4
-9 -8z"/>
<path d="M2010 1646 c7 -7 13 -7 20 0 6 6 3 10 -10 10 -13 0 -16 -4 -10 -10z"/>
<path d="M1973 1635 c0 -8 4 -12 9 -9 5 3 6 10 3 15 -9 13 -12 11 -12 -6z"/>
<path d="M3375 779 c-4 -6 -5 -12 -2 -15 2 -3 7 2 10 11 7 17 1 20 -8 4z"/>
<path d="M2198 743 c7 -3 16 -2 19 1 4 3 -2 6 -13 5 -11 0 -14 -3 -6 -6z"/>
</g>
</svg>
